<?xml version="1.0" encoding="utf-8"?>
<!-- Generator: Adobe Illustrator 22.0.1, SVG Export Plug-In . SVG Version: 6.00 Build 0)  -->
<svg version="1.1" id="Layer_1" xmlns="http://www.w3.org/2000/svg" xmlns:xlink="http://www.w3.org/1999/xlink" x="0px" y="0px"
	 viewBox="0 0 916 314" style="enable-background:new 0 0 916 314;" xml:space="preserve">
<style type="text/css">
	.st0{fill:#FD9B36;}
	.st1{fill:#112E8A;}
	.st2{enable-background:new    ;}
	.st3{fill:#8F9194;}
</style>
<g>
	<g>
		<path class="st0" d="M144.4,162.1c-4.9,7.1-9.8,13.2-16.3,17.7c-26.1,17.8-61.6,0.9-65.8-31.2c-5-37.7,21-75.4,57.9-84
			c4.9-1.1,9.8-1.6,14.9-1.5c15,0.4,23,6.4,27.8,21.1c2.7-4.6,3.4-9.5,4.8-14.1c0.9-2.9,2-4.1,5.1-4c8,0.2,16,0.3,24,0
			c3.8-0.1,4,1.2,3.1,4.3c-7.6,26.7-15.1,53.5-22.6,80.2c-1.4,5-2.6,10-2.2,15.2c0.7,8.9,6.4,12.5,14.5,9
			c17.5-7.7,29.4-21.2,36.7-38.5c10.3-24.4,10.9-49.5,0.7-73.9c-10.7-25.6-32.5-38.2-58.1-44.3c-64.5-15.1-126,27-136.1,92.2
			c-2.5,16-2.9,31.9,0.6,47.7c7.4,33.3,28.6,53.1,60.9,62c11.3,3.1,22.9,4.4,34.6,4.5c36.5,0.3,73,0.6,109.5,0.9
			c50.6,0.4,101.3,0.8,151.9,1.2c33.7,0.3,67.3,0.6,101,0.8c50.3,0.4,100.6,0.8,150.9,1.2c39.3,0.3,78.6,0.3,118,0.9
			c45,0.7,90,0.5,134.9,0.6c1.6,0,3.6-0.6,3.6,2.1c0,3-2.2,2.4-3.9,2.4c-16.3,0.1-32.7,0.3-49,0.3c-52.8,0.1-105.7,0.2-158.5,0.3
			c-102.8,0.3-205.6,0.6-308.4,0.9c-82.5,0.3-165,0.6-247.4,0.7c-26.2,0-51.8-3.9-75.4-16.3c-32.2-16.9-49.2-43.8-52.2-79.8
			C-2,70.4,48,18.5,109.5,6c27-5.5,53.8-4.9,79.5,6c35.3,15,53.8,42.3,55.9,80.5c1.6,28.5-6.1,54-26.4,75
			c-12,12.4-26.3,19.7-43.9,19.4C158,186.6,148.2,178.7,144.4,162.1z M97.9,153.5c0.3,2.9,0.4,5,0.8,7.2c0.9,6,3.4,10.9,9.6,12.8
			c6.2,1.9,11.4-0.1,16-4.5c2.5-2.4,4.6-5.3,6.5-8.2c7.8-12.6,13.1-26.2,17.3-40.3c2.8-9.4,4.8-19.1,5.8-28.8
			c1.3-13.3-8.2-20-20.4-14.5c-4.1,1.8-7.4,4.6-10,8.1C108.5,105.9,100.7,129.1,97.9,153.5z"/>
		<path class="st1" d="M574.4,87.4c3.8-4.2,7.4-8.6,11.8-12.2c8.8-7.1,18.7-10.8,30-10.4c15.4,0.5,22.7,7.1,26.3,23.9
			c3.7-4.3,7.2-8.5,11.3-12c11.6-9.8,24.8-14.2,39.9-10.9c10.8,2.4,17.4,10.5,18.4,21.6c0.6,6.6-0.4,12.9-2.3,19.2
			c-5.5,19.2-11.1,38.3-16.6,57.5c-0.8,2.9-1.5,5.8-1.5,8.8c-0.1,4.7,1.7,8,6,10c1.1,0.5,3.3,0.3,2.7,2.7s-2.4,2-4,1.9
			c-12-0.7-24-1.2-36-0.6c-4.2,0.2-8.3,0.5-12.5,0.6c-1,0-2.6,0.7-2.8-1.1c-0.2-1.2,0.4-2.3,1.8-2.7c11-3.2,14.7-12,17.4-21.9
			c5.3-19.6,11.9-38.8,16.1-58.7c1-4.6,1.3-9.2,0.8-13.9c-1.1-9.6-8-14-17.1-10.8c-4.9,1.7-8.7,4.9-11.9,8.8
			c-7.3,8.7-12.1,18.7-15.2,29.5c-4.7,16-9.3,31.9-13.8,48c-0.7,2.5-1.1,5.2-1.3,7.8c-0.4,4.8,1.5,8.4,6.1,10.4
			c1.2,0.5,3.2,0.4,2.5,2.8c-0.6,2-2.1,1.8-3.6,1.8c-12.1-0.6-24.3-1.2-36.5-0.6c-4.2,0.2-8.3,0.5-12.5,0.6c-1,0-2.6,0.6-2.7-1.2
			c-0.1-1.2,0.5-2.2,1.9-2.6c9.6-2.8,14-10.2,16.5-19.1c5.7-20.7,12.7-41,17-62.1c0.9-4.2,1.2-8.6,0.7-12.9
			c-1.1-10.2-8.6-14.7-18.2-10.8c-4.9,2-8.6,5.6-11.9,9.6c-5.2,6.4-9.2,13.6-11.8,21.3c-5.6,17.1-10.7,34.3-14.6,51.8
			c-0.9,4.1-1.1,8.3-0.6,12.4c0.3,3.5,1.7,6.4,4.6,8.5c1.1,0.8,3,1.1,2.2,3.3s-2.6,1.8-4.2,1.7c-4.3-0.1-8.6-0.4-13-0.6
			c-12.2-0.5-24.3-0.1-36.5,0.6c-1.1,0.1-3,0.9-3.4-1c-0.4-1.7,0.9-2.7,2.4-3.3c8-3.3,12.2-10,15.7-17.3c4.4-9.2,6.8-19.1,9.5-28.9
			c4-14.3,8.7-28.3,11.9-42.8c1.4-6.4,1.1-12.4-5.9-15.7c-1.1-0.5-1.4-1.2-1-2.4c0.6-1.8,2.1-1.9,3.6-2c8.2-0.6,16.2-1.8,24.3-3.2
			c4.4-0.8,8.8-1.7,13.8-2.6c-0.7,6.4-3.4,12.1-4.6,18.2c-0.4,0.7-0.7,1.4-0.1,2.2C573.7,88.3,574.1,87.8,574.4,87.4z"/>
		<path class="st1" d="M779.7,68.2c-1.9,6.6-3.6,12.5-5.3,18.5c2.4,1.1,3.1-1.5,4.2-2.8c7.9-9.2,17.2-16.2,29.4-18.5
			c4.8-0.9,9.6-1,14.4-0.3c12.5,1.9,19.5,9.7,20.8,23.8c2.6-2.9,4.8-5.4,7.2-7.9c10-10.5,21.9-16.7,36.7-16.4
			c17.7,0.3,27.9,12,26.2,29.7c-1,10.7-5,20.7-7.8,30.9c-3.5,13.2-7.5,26.2-11.3,39.3c-0.5,1.6-0.9,3.2-1.2,4.8
			c-1.2,7.1,0.3,10.3,6.7,13.8c0.9,0.5,2.4,0.7,1.8,2.4c-0.4,1.1-1,2.1-2.5,2c-1-0.1-2,0-3,0c-15.1-1.1-30.3-1.1-45.4-0.1
			c-1.4,0.1-3.8,1.1-4.4-1c-0.6-2.3,1.8-2.7,3.5-3.3c6.5-2.2,10.9-7,12.8-13.2c7.3-23.8,15.4-47.5,19.6-72.1c0.5-3,0.5-6,0-9
			c-1.5-9.5-8.4-13.6-17.5-10.3c-4.9,1.7-8.6,5-11.8,8.9c-6.6,7.9-11.2,16.9-14.2,26.7c-5.2,17.5-10.2,35.1-15.1,52.8
			c-2.5,8.9-1.2,11.7,6.5,16.4c0.9,0.5,1.9,0.8,1.3,2.1c-0.4,0.9-0.7,1.9-1.9,2c-1,0-2,0.1-3,0c-15.5-1.1-30.9-1.1-46.4,0
			c-1.3,0.1-3.4,1-3.9-0.9s1.2-2.6,3-3.2c7.8-2.6,12.3-8.6,14.5-16.1c6.1-20.9,12.8-41.7,17.5-63c1.1-5,1.8-10.2,1-15.4
			c-1.5-9.7-8.6-13.8-17.9-10.2c-4.8,1.9-8.5,5.2-11.7,9.1c-5.5,6.6-9.8,14-12.4,22.1c-5.7,17.7-11.5,35.5-14.9,53.8
			c-1.3,7.2-2.1,14.7,5.6,19.7c2,1.3,1.3,3.2-1,3.9c-0.9,0.3-2,0.2-3,0.1c-16-1.1-31.9-1.1-47.9,0c-0.5,0-1,0.1-1.5,0
			c-1-0.1-2.5,0.6-2.7-1.3c-0.1-1.3,0.5-2.2,1.7-2.7c10.4-4.2,15.1-13.3,18.5-23c7.5-21.5,13.2-43.6,19.2-65.6
			c0.7-2.6,0.8-5.3,0.5-7.9c-0.4-3.3-1.8-6-4.7-7.9c-1.1-0.7-3.3-0.4-2.7-2.8c0.5-2.1,2.1-2.2,3.8-2.4c10-0.7,19.8-2.4,29.7-4.2
			C773.6,69.5,776.2,68.9,779.7,68.2z"/>
		<path class="st1" d="M467.1,64.8c6.2-0.1,12.3,0.6,18.3,2.4c25,7.2,37,28.7,31.1,55.4c-7.5,33.8-37.2,61.2-71.9,66.5
			c-9.1,1.4-18.2,1.6-27.3-0.3c-27.7-5.8-41.5-28.7-34.8-57.3C391.5,93.5,427.8,64.9,467.1,64.8z M414.7,154.8
			c0.2,3.7,0.2,6.2,0.4,8.7c1.9,16.7,14.5,23.8,29.8,16.6c7.8-3.7,13.4-9.8,18.1-16.7c9.7-14.4,15.7-30.4,19-47.3
			c1.9-9.5,3-19.1,0.8-28.7c-2.6-11.6-11-16.9-22.6-14.5c-9.7,2-16.7,8.1-22.3,15.8C423.5,108.7,416.3,131.4,414.7,154.8z"/>
		<path class="st1" d="M359.2,151.2c4.3,3.6,4.5,6.7,0.8,11.2c-17.5,21.6-40.4,30-67.3,27.2c-27.3-2.9-42.3-23.7-38.3-51.2
			c6.7-45.8,46.6-77.4,92.5-73.3c13,1.2,24.8,6.1,36,12.6c2,1.2,2.5,2.1,1.2,4.3C378,92.5,372,103.1,366,113.6
			c-0.7,1.2-1.2,2.9-3.3,2c-2.2-1-0.9-2.5-0.7-3.8c1.1-6.1,2-12.1,1.2-18.4c-2.1-16.8-14.7-24.9-30.9-19.8
			c-7.4,2.3-13.5,6.7-18.3,12.6c-15.9,19.4-24.7,41.8-25.2,66.9c-0.4,20.6,13.6,31.2,33.7,26.4c13.8-3.3,24-11.8,32.5-22.7
			C356.5,154.9,357.8,153.1,359.2,151.2z"/>
	</g>
</g>
<g class="st2">
	<path class="st3" d="M228.6,278.8l5.1,0.7c-1.6,4.5-4,7.8-7.1,10.1c-3.1,2.3-6.6,3.4-10.4,3.4c-4.7,0-8.4-1.4-11.2-4.3
		s-4.1-7-4.1-12.3c0-7,2.1-12.7,6.3-17.3c3.7-4.1,8.4-6.1,13.9-6.1c4.1,0,7.4,1.1,10,3.3c2.5,2.2,4,5.2,4.4,8.9l-4.8,0.4
		c-0.5-2.8-1.6-4.9-3.2-6.3c-1.6-1.4-3.6-2.1-6.2-2.1c-4.7,0-8.6,2.1-11.5,6.3c-2.5,3.6-3.8,7.9-3.8,12.9c0,4,1,7,2.9,9.1
		s4.5,3.1,7.6,3.1c2.7,0,5.1-0.9,7.3-2.6S227.6,282,228.6,278.8z"/>
	<path class="st3" d="M255.7,288.9c-1.7,1.4-3.2,2.5-4.8,3.1c-1.5,0.7-3.2,1-4.9,1c-2.6,0-4.7-0.8-6.2-2.3c-1.6-1.5-2.4-3.5-2.4-5.8
		c0-1.6,0.4-2.9,1.1-4.2s1.7-2.2,2.8-2.9c1.2-0.7,2.6-1.3,4.3-1.6c1.1-0.2,3.1-0.4,6.1-0.5s5.1-0.4,6.4-0.9c0.4-1.3,0.6-2.4,0.6-3.2
		c0-1.1-0.4-2-1.2-2.6c-1.1-0.9-2.7-1.3-4.9-1.3c-2,0-3.6,0.4-4.9,1.3c-1.3,0.9-2.2,2.1-2.8,3.8l-4.8-0.4c1-2.8,2.5-4.9,4.7-6.4
		s4.8-2.2,8.1-2.2c3.5,0,6.2,0.8,8.2,2.5c1.5,1.2,2.3,2.8,2.3,4.8c0,1.5-0.2,3.2-0.7,5.2l-1.6,7c-0.5,2.2-0.7,4-0.7,5.4
		c0,0.9,0.2,2.1,0.6,3.8h-4.8C256,291.5,255.8,290.4,255.7,288.9z M257.5,278.2c-0.7,0.3-1.4,0.5-2.1,0.6s-2,0.3-3.8,0.4
		c-2.8,0.2-4.7,0.6-5.9,0.9c-1.1,0.4-2,1-2.6,1.8s-0.9,1.7-0.9,2.7c0,1.3,0.5,2.4,1.4,3.3s2.2,1.3,3.9,1.3c1.6,0,3.1-0.4,4.6-1.3
		c1.5-0.8,2.6-2,3.5-3.5C256.5,282.9,257,281,257.5,278.2z"/>
	<path class="st3" d="M266.5,292.4l8.1-38.7h4.8l-8.1,38.7H266.5z"/>
	<path class="st3" d="M278.5,292.4l8.1-38.7h4.8l-8.1,38.7H278.5z"/>
	<path class="st3" d="M301,292.4l21.9-38.7h6.1l6.4,38.7h-5l-1.9-11.1h-15.6l-6.2,11.1H301z M315.1,277.3h12.8l-1.5-9.7
		c-0.6-3.8-0.9-7.1-1.1-9.6c-0.9,2.2-2.2,4.8-3.8,7.9L315.1,277.3z"/>
	<path class="st3" d="M359.2,282.2l4.8,0.5c-1.2,3.5-2.9,6.1-5.1,7.8c-2.2,1.7-4.7,2.5-7.5,2.5c-3,0-5.5-1-7.4-3s-2.8-4.7-2.8-8.3
		c0-3.1,0.6-6.1,1.8-9s2.9-5.2,5.2-6.7c2.3-1.5,4.8-2.3,7.7-2.3c3,0,5.4,0.8,7.1,2.5c1.8,1.7,2.6,3.9,2.6,6.7l-4.7,0.3
		c0-1.8-0.5-3.2-1.5-4.2s-2.3-1.5-4-1.5c-1.9,0-3.6,0.6-5,1.8s-2.5,3.1-3.3,5.5c-0.8,2.5-1.2,4.8-1.2,7.1c0,2.4,0.5,4.2,1.6,5.4
		s2.4,1.8,3.9,1.8s3-0.6,4.4-1.8C357.3,286.4,358.4,284.6,359.2,282.2z"/>
	<path class="st3" d="M386.2,282.2l4.8,0.5c-1.2,3.5-2.9,6.1-5.1,7.8c-2.2,1.7-4.7,2.5-7.5,2.5c-3,0-5.5-1-7.4-3s-2.8-4.7-2.8-8.3
		c0-3.1,0.6-6.1,1.8-9s2.9-5.2,5.2-6.7c2.3-1.5,4.8-2.3,7.7-2.3c3,0,5.4,0.8,7.1,2.5c1.8,1.7,2.6,3.9,2.6,6.7l-4.7,0.3
		c0-1.8-0.5-3.2-1.5-4.2s-2.3-1.5-4-1.5c-1.9,0-3.6,0.6-5,1.8s-2.5,3.1-3.3,5.5c-0.8,2.5-1.2,4.8-1.2,7.1c0,2.4,0.5,4.2,1.6,5.4
		s2.4,1.8,3.9,1.8s3-0.6,4.4-1.8C384.3,286.4,385.4,284.6,386.2,282.2z"/>
	<path class="st3" d="M394.7,281.8c0-5.5,1.6-10,4.8-13.6c2.7-3,6.1-4.4,10.4-4.4c3.4,0,6.1,1.1,8.2,3.2s3.1,5,3.1,8.5
		c0,3.2-0.7,6.2-2,9s-3.2,4.9-5.6,6.4s-4.9,2.2-7.6,2.2c-2.2,0-4.2-0.5-5.9-1.4c-1.8-0.9-3.1-2.3-4.1-4S394.7,284,394.7,281.8z
		 M399.5,281.3c0,2.6,0.6,4.6,1.9,6s2.9,2,4.8,2c1,0,2-0.2,3-0.6s1.9-1,2.8-1.9s1.6-1.8,2.2-2.9s1.1-2.2,1.5-3.5
		c0.5-1.7,0.8-3.4,0.8-5c0-2.5-0.6-4.5-1.9-5.9s-2.9-2.1-4.8-2.1c-1.5,0-2.9,0.4-4.1,1.1s-2.3,1.8-3.3,3.1c-1,1.4-1.7,3-2.2,4.8
		C399.7,278.3,399.5,279.9,399.5,281.3z"/>
	<path class="st3" d="M443,287.4c-3.4,3.8-6.8,5.7-10.3,5.7c-2.2,0-3.9-0.6-5.2-1.9c-1.3-1.2-2-2.8-2-4.5c0-1.2,0.3-3.2,0.9-6.1
		l3.4-16.2h4.8l-3.7,17.9c-0.3,1.5-0.5,2.7-0.5,3.5c0,1.1,0.3,1.9,1,2.5s1.6,0.9,2.8,0.9c1.3,0,2.6-0.3,3.9-1s2.4-1.5,3.3-2.6
		s1.7-2.4,2.3-3.9c0.4-1,0.8-2.7,1.3-5.1l2.5-12.1h4.8l-5.9,28H442L443,287.4z"/>
	<path class="st3" d="M453.9,292.4l5.9-28h4.3l-1,4.9c1.9-1.9,3.6-3.3,5.3-4.2c1.6-0.9,3.3-1.3,5-1.3c2.3,0,4,0.6,5.3,1.8
		c1.3,1.2,1.9,2.9,1.9,4.9c0,1-0.2,2.7-0.7,4.9l-3.6,17h-4.8l3.7-17.7c0.4-1.7,0.6-3,0.6-3.8c0-0.9-0.3-1.7-1-2.3
		c-0.6-0.6-1.6-0.9-2.8-0.9c-2.4,0-4.6,0.9-6.5,2.6s-3.3,4.8-4.2,9l-2.7,13h-4.7V292.4z"/>
	<path class="st3" d="M495.1,288.6l-0.8,3.9c-1.1,0.3-2.3,0.4-3.3,0.4c-1.9,0-3.4-0.5-4.5-1.4c-0.8-0.7-1.3-1.7-1.3-2.9
		c0-0.6,0.2-2,0.7-4.2l3.4-16.3h-3.8l0.8-3.7h3.8l1.5-6.9l5.5-3.3l-2.1,10.2h4.7l-0.8,3.7h-4.7l-3.2,15.5c-0.4,2-0.6,3.1-0.6,3.5
		c0,0.6,0.2,1,0.5,1.3s0.9,0.4,1.6,0.4C493.4,288.9,494.3,288.8,495.1,288.6z"/>
	<path class="st3" d="M498.8,292.4l5.9-28h4.8l-5.9,28H498.8z M505.8,259.2l1.1-5.4h4.7l-1.1,5.4H505.8z"/>
	<path class="st3" d="M511,292.4l5.9-28h4.3l-1,4.9c1.9-1.9,3.6-3.3,5.3-4.2c1.6-0.9,3.3-1.3,5-1.3c2.3,0,4,0.6,5.3,1.8
		c1.3,1.2,1.9,2.9,1.9,4.9c0,1-0.2,2.7-0.7,4.9l-3.6,17h-4.8l3.7-17.7c0.4-1.7,0.6-3,0.6-3.8c0-0.9-0.3-1.7-1-2.3
		c-0.6-0.6-1.6-0.9-2.8-0.9c-2.4,0-4.6,0.9-6.5,2.6s-3.3,4.8-4.2,9l-2.7,13H511V292.4z"/>
	<path class="st3" d="M540.7,295l4.8,0.4c0,1.1,0.1,1.9,0.4,2.5s0.8,1,1.4,1.3c0.9,0.4,2,0.6,3.3,0.6c2.9,0,5-0.7,6.2-2.2
		c0.8-1,1.6-3.2,2.3-6.5l0.5-2.3c-2.5,2.5-5.1,3.8-7.9,3.8c-2.8,0-5.2-1-7.1-3.1c-1.9-2.1-2.9-5-2.9-8.8c0-3.1,0.8-6,2.3-8.7
		c1.5-2.6,3.3-4.6,5.4-6c2.1-1.3,4.2-2,6.4-2c3.7,0,6.5,1.7,8.5,5.2l0.9-4.6h4.4l-5.6,27c-0.6,3-1.4,5.3-2.4,6.9
		c-1,1.7-2.4,2.9-4.2,3.9s-3.8,1.4-6.2,1.4c-2.3,0-4.2-0.3-5.8-0.9s-2.8-1.4-3.6-2.5s-1.2-2.4-1.2-3.8
		C540.6,295.9,540.7,295.5,540.7,295z M546.7,280c0,1.9,0.2,3.4,0.6,4.3c0.5,1.4,1.3,2.4,2.3,3.1s2.1,1.1,3.3,1.1
		c1.6,0,3.1-0.5,4.7-1.6c1.5-1.1,2.8-2.8,3.8-5.1s1.4-4.5,1.4-6.6c0-2.3-0.6-4.1-1.9-5.5c-1.3-1.4-2.9-2-4.7-2
		c-1.2,0-2.3,0.3-3.4,0.9c-1.1,0.6-2.1,1.6-3,2.8c-0.9,1.3-1.7,2.8-2.1,4.6S546.7,279.1,546.7,280z"/>
	<path class="st3" d="M586.6,292.4l8.1-38.7h6.4l3.9,25c0.5,3.3,0.8,6.4,1,9.5c1.1-2.6,2.9-6.1,5.4-10.6l13.6-23.9h6.5l-8.1,38.7
		h-5.1l4-18.8c0.9-4.3,2.3-9.2,4-14.6c-1.1,2.5-2.5,5.2-4.1,8.1l-14.4,25.3h-5l-3.9-24.8c-0.4-2.3-0.6-4.9-0.8-7.9
		c-0.4,3.4-0.9,6.1-1.3,8.1l-5.1,24.7h-5.1V292.4z"/>
	<path class="st3" d="M649.9,288.9c-1.7,1.4-3.2,2.5-4.8,3.1c-1.5,0.7-3.2,1-4.9,1c-2.6,0-4.7-0.8-6.2-2.3c-1.6-1.5-2.4-3.5-2.4-5.8
		c0-1.6,0.4-2.9,1.1-4.2c0.7-1.2,1.7-2.2,2.8-2.9s2.6-1.3,4.3-1.6c1.1-0.2,3.1-0.4,6.1-0.5s5.1-0.4,6.4-0.9c0.4-1.3,0.6-2.4,0.6-3.2
		c0-1.1-0.4-2-1.2-2.6c-1.1-0.9-2.7-1.3-4.9-1.3c-2,0-3.6,0.4-4.9,1.3c-1.3,0.9-2.2,2.1-2.8,3.8l-4.8-0.4c1-2.8,2.5-4.9,4.7-6.4
		c2.1-1.5,4.8-2.2,8.1-2.2c3.5,0,6.2,0.8,8.2,2.5c1.5,1.2,2.3,2.8,2.3,4.8c0,1.5-0.2,3.2-0.7,5.2l-1.6,7c-0.5,2.2-0.7,4-0.7,5.4
		c0,0.9,0.2,2.1,0.6,3.8h-4.8C650.2,291.5,650,290.4,649.9,288.9z M651.7,278.2c-0.7,0.3-1.4,0.5-2.1,0.6c-0.8,0.1-2,0.3-3.8,0.4
		c-2.8,0.2-4.7,0.6-5.9,0.9c-1.1,0.4-2,1-2.6,1.8s-0.9,1.7-0.9,2.7c0,1.3,0.5,2.4,1.4,3.3s2.2,1.3,3.9,1.3c1.6,0,3.1-0.4,4.6-1.3
		s2.6-2,3.5-3.5S651.2,281,651.7,278.2z"/>
	<path class="st3" d="M679.9,288.4c-2.7,3.1-5.6,4.7-8.5,4.7c-2.7,0-4.9-1-6.6-2.9c-1.8-2-2.7-4.8-2.7-8.5c0-3.4,0.7-6.5,2.1-9.3
		c1.4-2.8,3.1-4.9,5.2-6.3c2.1-1.4,4.2-2.1,6.3-2.1c3.5,0,6.1,1.7,7.9,5l3.2-15.1h4.7l-8.1,38.7H679L679.9,288.4z M666.9,280.7
		c0,2,0.2,3.5,0.6,4.6s1,2.1,2,2.8s2,1.1,3.3,1.1c2.2,0,4.1-1.1,5.9-3.4c2.4-3,3.5-6.7,3.5-11.1c0-2.2-0.6-3.9-1.7-5.2
		s-2.6-1.9-4.4-1.9c-1.1,0-2.2,0.3-3.1,0.8c-0.9,0.5-1.9,1.4-2.8,2.6c-0.9,1.2-1.7,2.8-2.3,4.7S666.9,279.3,666.9,280.7z"/>
	<path class="st3" d="M711.7,282.9l4.6,0.5c-0.7,2.3-2.2,4.5-4.6,6.6c-2.4,2.1-5.3,3.1-8.6,3.1c-2.1,0-4-0.5-5.7-1.4
		c-1.7-1-3-2.4-4-4.2s-1.4-3.9-1.4-6.2c0-3.1,0.7-6,2.1-8.9c1.4-2.9,3.2-5,5.5-6.4s4.7-2.1,7.3-2.1c3.3,0,6,1,8,3.1s3,4.9,3,8.5
		c0,1.4-0.1,2.8-0.4,4.2H697c-0.1,0.5-0.1,1-0.1,1.5c0,2.6,0.6,4.6,1.8,6s2.7,2.1,4.4,2.1c1.6,0,3.2-0.5,4.8-1.6
		S710.8,284.9,711.7,282.9z M697.8,276h15.7c0-0.5,0-0.8,0-1.1c0-2.4-0.6-4.2-1.8-5.5s-2.7-1.9-4.6-1.9c-2,0-3.9,0.7-5.6,2.1
		C699.9,271,698.6,273.1,697.8,276z"/>
	<path class="st3" d="M738.1,279.9l5.1-0.5l-0.1,1.3c0,1.5,0.3,2.9,1,4.1s1.8,2.2,3.4,2.9c1.6,0.7,3.5,1,5.6,1c3.1,0,5.5-0.7,7.1-2
		c1.6-1.4,2.4-2.9,2.4-4.6c0-1.2-0.4-2.3-1.3-3.3c-0.9-1-3.3-2.3-7.2-4c-3-1.3-5.1-2.3-6.2-3c-1.7-1.1-3-2.4-3.8-3.7
		c-0.8-1.3-1.2-2.9-1.2-4.6c0-2,0.5-3.8,1.6-5.4s2.7-2.8,4.8-3.7s4.5-1.3,7.1-1.3c3.1,0,5.8,0.5,8,1.6s3.7,2.5,4.7,4.2
		c1,1.8,1.5,3.4,1.5,5c0,0.2,0,0.4,0,0.8l-5,0.4c0-1.1-0.1-1.9-0.3-2.6c-0.4-1.1-0.9-2-1.6-2.7s-1.8-1.3-3-1.8
		c-1.3-0.4-2.7-0.7-4.3-0.7c-2.8,0-5,0.6-6.6,1.9c-1.2,1-1.8,2.3-1.8,3.8c0,0.9,0.2,1.8,0.7,2.5s1.4,1.5,2.7,2.2
		c0.9,0.5,3.1,1.5,6.5,3c2.8,1.2,4.7,2.2,5.7,2.9c1.4,0.9,2.5,2.1,3.2,3.4c0.8,1.3,1.1,2.8,1.1,4.5c0,2.1-0.6,4-1.9,5.8
		c-1.3,1.8-3,3.1-5.3,4.1s-4.8,1.5-7.7,1.5c-4.4,0-8-1-10.7-2.9C739.5,288.3,738.1,284.9,738.1,279.9z"/>
	<path class="st3" d="M772,292.4l5.9-28h4.8l-5.9,28H772z M778.9,259.2l1.1-5.4h4.7l-1.1,5.4H778.9z"/>
	<path class="st3" d="M784.1,292.4l5.9-28h4.8l-1,4.6c1.8-2,3.4-3.4,4.8-4.1c1.4-0.8,2.9-1.1,4.5-1.1c1.7,0,3.2,0.5,4.4,1.4
		s1.9,2.2,2.3,3.9c1.4-1.8,2.9-3.1,4.5-3.9c1.6-0.9,3.2-1.3,5-1.3c2.3,0,4.1,0.6,5.3,1.7s1.8,2.7,1.8,4.7c0,0.9-0.2,2.3-0.6,4.3
		l-3.8,18h-4.8l3.8-18.5c0.3-1.5,0.5-2.6,0.5-3.2c0-0.9-0.3-1.6-0.9-2.2s-1.4-0.8-2.5-0.8c-1.4,0-2.9,0.4-4.4,1.3s-2.6,2-3.4,3.4
		c-0.8,1.4-1.5,3.5-2.1,6.4l-2.8,13.6h-4.8l4-18.9c0.3-1.3,0.4-2.2,0.4-2.7c0-0.9-0.3-1.7-0.9-2.2s-1.3-0.8-2.2-0.8
		c-1.4,0-2.8,0.4-4.3,1.3s-2.7,2.1-3.6,3.6s-1.7,3.7-2.3,6.6l-2.8,13.2h-4.8V292.4z"/>
	<path class="st3" d="M826.8,303.2l8.1-38.7h4.4l-0.8,3.9c1.6-1.7,3.1-2.9,4.4-3.5c1.3-0.7,2.7-1,4.1-1c2.7,0,4.9,1,6.6,2.9
		c1.8,1.9,2.6,4.7,2.6,8.3c0,2.9-0.5,5.6-1.5,8s-2.2,4.3-3.6,5.8s-2.8,2.5-4.3,3.2s-2.9,1-4.4,1c-3.4,0-6-1.7-7.8-5.1l-3.2,15.2
		L826.8,303.2L826.8,303.2z M836.2,281c0,2.1,0.1,3.5,0.4,4.4c0.4,1.1,1.2,2.1,2.2,2.8s2.2,1.1,3.5,1.1c2.7,0,5-1.5,6.6-4.6
		c1.7-3.1,2.5-6.2,2.5-9.5c0-2.4-0.6-4.2-1.7-5.5c-1.1-1.3-2.5-1.9-4.2-1.9c-1.2,0-2.3,0.3-3.4,1s-2,1.6-2.9,2.9s-1.6,2.8-2.2,4.7
		S836.2,279.6,836.2,281z"/>
	<path class="st3" d="M858.8,292.4l8.1-38.7h4.8l-8.1,38.7H858.8z"/>
	<path class="st3" d="M891.7,282.9l4.6,0.5c-0.7,2.3-2.2,4.5-4.6,6.6c-2.4,2.1-5.3,3.1-8.6,3.1c-2.1,0-4-0.5-5.7-1.4
		c-1.7-1-3-2.4-4-4.2s-1.4-3.9-1.4-6.2c0-3.1,0.7-6,2.1-8.9c1.4-2.9,3.2-5,5.5-6.4s4.7-2.1,7.3-2.1c3.3,0,6,1,8,3.1s3,4.9,3,8.5
		c0,1.4-0.1,2.8-0.4,4.2h-20.6c-0.1,0.5-0.1,1-0.1,1.5c0,2.6,0.6,4.6,1.8,6s2.7,2.1,4.4,2.1c1.6,0,3.2-0.5,4.8-1.6
		S890.8,284.9,891.7,282.9z M877.8,276h15.7c0-0.5,0-0.8,0-1.1c0-2.4-0.6-4.2-1.8-5.5s-2.7-1.9-4.6-1.9c-2,0-3.9,0.7-5.6,2.1
		C879.9,271,878.7,273.1,877.8,276z"/>
</g>
</svg>
