<?xml version="1.0" encoding="utf-8"?>
<!-- Generator: Adobe Illustrator 22.0.1, SVG Export Plug-In . SVG Version: 6.00 Build 0)  -->
<svg version="1.1" id="Layer_1" xmlns="http://www.w3.org/2000/svg" xmlns:xlink="http://www.w3.org/1999/xlink" x="0px" y="0px"
	 viewBox="0 0 172.1 24.8" style="enable-background:new 0 0 172.1 24.8;" xml:space="preserve">
<style type="text/css">
	.st0{enable-background:new    ;}
	.st1{fill:#004F9D;}
</style>
<g class="st0">
	<path class="st1" d="M0.4,22.5c-0.5-1.4-0.5-3.4,0.2-5.9l2.3-8.5c0.7-2.6,1.7-4.6,3.1-6C7.3,0.7,9.2,0,11.6,0
		c2.2,0,3.6,0.6,4.2,1.8s0.6,2.9,0,5.2l-0.5,1.9h-3.2l0.5-1.7c0.3-1.1,0.5-2,0.5-2.6C13.2,4,13,3.5,12.7,3.2
		c-0.3-0.4-0.9-0.5-1.8-0.5S9.3,2.9,8.7,3.3c-0.6,0.4-1,0.9-1.3,1.6s-0.6,1.6-1,2.8l-2.6,9.6c-0.3,1.2-0.5,2.2-0.5,2.9
		c0,0.7,0.2,1.2,0.6,1.5c0.4,0.3,0.9,0.4,1.7,0.4c0.9,0,1.5-0.2,2.1-0.6c0.5-0.4,0.9-0.9,1.2-1.5s0.6-1.5,0.9-2.7l0.5-1.8h3.2
		L13,17.3c-0.7,2.4-1.6,4.2-2.9,5.5s-3,1.9-5.2,1.9C2.5,24.6,1,23.9,0.4,22.5z"/>
	<path class="st1" d="M15.2,23c-0.5-1.1-0.4-2.7,0.1-4.7l1.4-5c0.6-2.1,1.4-3.6,2.4-4.7C20.2,7.5,21.6,7,23.4,7
		c1.8,0,2.9,0.5,3.4,1.6s0.4,2.7-0.1,4.7l-1.4,5c-0.6,2.1-1.4,3.6-2.4,4.7c-1.1,1.1-2.5,1.6-4.3,1.6C16.9,24.6,15.7,24,15.2,23z
		 M20.7,21.7c0.3-0.3,0.6-0.8,0.8-1.3c0.2-0.5,0.4-1.2,0.6-2l1.5-5.4c0.2-0.9,0.4-1.5,0.5-2s0-0.9-0.1-1.3c-0.2-0.3-0.5-0.5-1.1-0.5
		s-1,0.2-1.4,0.5s-0.6,0.8-0.8,1.3c-0.2,0.5-0.4,1.2-0.6,2l-1.5,5.4c-0.2,0.9-0.4,1.5-0.5,2s0,0.9,0.2,1.3c0.2,0.3,0.6,0.5,1.1,0.5
		S20.4,22.1,20.7,21.7z"/>
	<path class="st1" d="M31.3,7.1h3l-0.4,1.6c0.7-0.6,1.5-1.1,2.3-1.4s1.5-0.5,2.3-0.5c1.5,0,2.2,0.7,2.2,2.2c1.6-1.5,3.2-2.2,4.9-2.2
		c0.9,0,1.5,0.3,1.9,1s0.4,1.7,0,3l-3.7,13.5h-2.9L44.5,11c0.2-0.8,0.2-1.3,0.1-1.7c-0.2-0.3-0.5-0.5-1-0.5c-0.4,0-0.9,0.1-1.5,0.4
		c-0.5,0.2-1.1,0.6-1.6,1l-0.1,0.5l-3.7,13.5h-2.9l3.6-13.3c0.2-0.8,0.2-1.3,0.1-1.7c-0.2-0.3-0.5-0.5-1-0.5c-0.4,0-0.9,0.1-1.4,0.4
		c-0.5,0.2-1.1,0.6-1.6,1l-3.8,14h-3L31.3,7.1z"/>
	<path class="st1" d="M51.6,7.1h3l-0.4,1.6c0.7-0.6,1.5-1.1,2.3-1.4s1.5-0.5,2.3-0.5C60.3,6.8,61,7.5,61,9c1.6-1.5,3.2-2.2,4.9-2.2
		c0.9,0,1.5,0.3,1.9,1s0.4,1.7,0,3l-3.7,13.5h-2.9L64.8,11c0.2-0.8,0.2-1.3,0.1-1.7c-0.2-0.3-0.5-0.5-1-0.5c-0.4,0-0.9,0.1-1.5,0.4
		c-0.5,0.2-1.1,0.6-1.6,1l-0.1,0.5L57,24.2h-2.9l3.6-13.3c0.2-0.8,0.2-1.3,0.1-1.7c-0.2-0.3-0.5-0.5-1-0.5c-0.4,0-0.9,0.1-1.4,0.4
		c-0.5,0.2-1.1,0.6-1.6,1l-3.8,14h-3L51.6,7.1z"/>
	<path class="st1" d="M72.8,0.2H76L75,18l8.5-17.8h3.1l-12,24.1h-3L72.8,0.2z"/>
	<path class="st1" d="M87.1,7.1h3.2l-4.7,17.2h-3.2L87.1,7.1z M88.7,1.2h3.2L91,4.5h-3.2L88.7,1.2z"/>
	<path class="st1" d="M90.9,23.8c-0.6-0.5-0.9-1.3-0.9-2.3s0.2-2.3,0.6-3.9l1.1-3.9c0.6-2.4,1.5-4.1,2.5-5.2s2.5-1.7,4.4-1.7
		c1.4,0,2.4,0.3,2.9,0.9s0.8,1.4,0.7,2.4c-0.1,1-0.3,2.4-0.8,4.2l-0.4,1.4h-6.8l-0.9,3.5C93,20.3,93,21,93.1,21.5
		c0.2,0.5,0.6,0.7,1.3,0.7s1.2-0.2,1.6-0.7s0.7-1.2,0.9-2.1l0.3-1h3.1l-0.2,0.7c-0.5,1.8-1.3,3.2-2.3,4.1c-1,1-2.4,1.4-4.1,1.4
		C92.5,24.6,91.5,24.3,90.9,23.8z M98.4,14.1l0.4-1.5c0.3-1.2,0.4-2,0.3-2.5s-0.5-0.8-1.2-0.8c-0.5,0-0.9,0.1-1.3,0.4
		c-0.3,0.2-0.6,0.6-0.9,1.2c-0.2,0.5-0.5,1.3-0.8,2.4l-0.3,0.9h3.8V14.1z"/>
	<path class="st1" d="M105.5,7.1h2.6l-1.7,12.7l5.7-12.7h2.4l-1.1,12.6l5.2-12.6h2.6l-7.3,17.2h-2.7l0.9-12.2l-5.6,12.2h-2.9
		L105.5,7.1z"/>
	<path class="st1" d="M132.8,0.2h6c2.1,0,3.4,0.6,4.1,1.7c0.6,1.1,0.7,2.8,0.1,5c-0.5,2-1.5,3.5-2.8,4.6s-2.9,1.6-4.9,1.6h-2.7
		l-3,11.2h-3.4L132.8,0.2z M134.9,10.7c1,0,1.8-0.1,2.4-0.3c0.6-0.2,1.1-0.6,1.5-1.1s0.7-1.3,1-2.3c0.3-1.2,0.5-2.1,0.5-2.7
		c0-0.6-0.3-1-0.7-1.2c-0.5-0.2-1.3-0.4-2.4-0.4h-1.6l-2.2,8.1h1.5V10.7z"/>
	<path class="st1" d="M147.1,0.2h3.2l-6.5,24.1h-3.2L147.1,0.2z"/>
	<path class="st1" d="M147.8,23.6c-0.2-0.7-0.2-1.5,0.1-2.5l3.8-13.9h3.2l-3.5,13c-0.2,0.7-0.2,1.1-0.1,1.5c0.1,0.3,0.4,0.5,0.9,0.5
		c0.6,0,1.5-0.4,2.5-1.1l3.8-13.9h3.2L157,24.4h-3.2l0.5-1.7c-1.7,1.3-3.3,1.9-4.7,1.9C148.6,24.6,148,24.2,147.8,23.6z"/>
	<path class="st1" d="M161.1,23.3c-0.6-0.9-0.8-2-0.5-3.5l2.9-0.8c-0.1,1.1-0.1,1.9,0.2,2.5c0.2,0.5,0.7,0.8,1.4,0.8
		c0.6,0,1-0.2,1.4-0.5s0.7-0.8,0.8-1.3s0.1-0.9,0-1.3s-0.4-0.8-0.7-1.2l-2.3-2.5c-0.5-0.6-0.9-1.2-1.1-1.8c-0.2-0.6-0.2-1.4,0.1-2.4
		c0.4-1.3,1-2.4,2-3.1s2.2-1.1,3.6-1.1c1.3,0,2.2,0.4,2.7,1.3c0.5,0.8,0.7,1.9,0.4,3.3l-2.4,0.8c0.1-1,0.1-1.7-0.1-2.2
		s-0.6-0.8-1.2-0.8c-0.5,0-1,0.2-1.4,0.5s-0.7,0.8-0.8,1.3c-0.2,0.6,0,1.2,0.4,1.7l2.3,2.8c0.6,0.7,1,1.4,1.2,2.1s0.2,1.5,0,2.5
		c-0.4,1.4-1.1,2.5-2.2,3.3c-1.1,0.8-2.3,1.1-3.8,1.1C162.8,24.6,161.8,24.1,161.1,23.3z"/>
</g>
</svg>
