<?xml version="1.0" encoding="UTF-8" standalone="no"?>
<!-- Created with Inkscape (http://www.inkscape.org/) -->

<svg
   xmlns:dc="http://purl.org/dc/elements/1.1/"
   xmlns:cc="http://creativecommons.org/ns#"
   xmlns:rdf="http://www.w3.org/1999/02/22-rdf-syntax-ns#"
   xmlns:svg="http://www.w3.org/2000/svg"
   xmlns="http://www.w3.org/2000/svg"
   xmlns:sodipodi="http://sodipodi.sourceforge.net/DTD/sodipodi-0.dtd"
   xmlns:inkscape="http://www.inkscape.org/namespaces/inkscape"
   width="999.99994"
   height="236.64409"
   id="svg11175"
   version="1.1"
   inkscape:version="0.48.5 r10040"
   sodipodi:docname="A.svg">
  <defs
     id="defs11177" />
  <sodipodi:namedview
     id="base"
     pagecolor="#ffffff"
     bordercolor="#666666"
     borderopacity="1.0"
     inkscape:pageopacity="0.0"
     inkscape:pageshadow="2"
     inkscape:zoom="0.57353516"
     inkscape:cx="488.96979"
     inkscape:cy="26.160809"
     inkscape:document-units="px"
     inkscape:current-layer="layer1"
     showgrid="false"
     fit-margin-left="0.5"
     fit-margin-bottom="0.5"
     fit-margin-top="0.5"
     fit-margin-right="0.5"
     inkscape:window-width="1260"
     inkscape:window-height="1036"
     inkscape:window-x="653"
     inkscape:window-y="-21"
     inkscape:window-maximized="0" />
  <metadata
     id="metadata11180">
    <rdf:RDF>
      <cc:Work
         rdf:about="">
        <dc:format>image/svg+xml</dc:format>
        <dc:type
           rdf:resource="http://purl.org/dc/dcmitype/StillImage" />
        <dc:title></dc:title>
      </cc:Work>
    </rdf:RDF>
  </metadata>
  <g
     inkscape:label="Layer 1"
     inkscape:groupmode="layer"
     id="layer1"
     transform="translate(-113.07803,-422.76632)">
    <g
       id="g11380"
       transform="matrix(11.099999,0,0,-11.099999,274.87656,586.29307)">
      <path
         inkscape:connector-curvature="0"
         d="m 0,0 -2.395,1.385 -0.746,0.432 c -0.292,0.223 -0.481,0.575 -0.481,0.971 0,0.396 0.189,0.747 0.481,0.972 l 0.746,0.433 -2.391,1.388 C -5.573,4.907 -6.073,3.906 -6.073,2.788 c 0,-1.115 0.497,-2.114 1.282,-2.788 0.132,-0.113 0.271,-0.217 0.417,-0.31 l 1.979,-1.143 6.612,-3.818 c 0.544,-0.316 1.174,-0.499 1.848,-0.499 2.03,0 3.676,1.647 3.676,3.677 l 0,9.782 c 0,2.03 -1.646,3.676 -3.676,3.676 -0.678,0 -1.312,-0.184 -1.856,-0.503 L -2.395,7.033 -0.417,5.887 C -0.272,5.794 -0.135,5.692 -0.004,5.581 L 5.438,8.74 c 0.184,0.111 0.397,0.175 0.627,0.175 0.676,0 1.225,-0.549 1.225,-1.226 l 0,-9.782 c 0,-0.677 -0.549,-1.226 -1.225,-1.226 -0.227,0 -0.437,0.062 -0.619,0.17 L 0,-0.001"
         style="fill:#004f9d;fill-opacity:1;fill-rule:nonzero;stroke:none"
         id="path11382" />
    </g>
    <g
       id="g11384"
       transform="matrix(11.099999,0,0,-11.099999,801.95441,593.85999)">
      <path
         inkscape:connector-curvature="0"
         d="m 0,0 0,7.208 3.428,0 0,2.373 -3.428,0 0,3.223 -2.461,0 0,-12.804 c 0,-3.838 2.432,-5.919 5.948,-5.509 l 0,2.286 C 1.611,-3.34 0,-2.667 0,0"
         style="fill:#004f9d;fill-opacity:1;fill-rule:nonzero;stroke:none"
         id="path11386" />
    </g>
    <g
       id="g11388"
       transform="matrix(11.099999,0,0,-11.099999,726.97055,435.22209)">
      <path
         inkscape:connector-curvature="0"
         d="m 0,0 c -0.83,0 -1.502,-0.672 -1.502,-1.502 0,-0.829 0.672,-1.502 1.502,-1.502 0.83,0 1.502,0.673 1.502,1.502 C 1.502,-0.672 0.83,0 0,0"
         style="fill:#004f9d;fill-opacity:1;fill-rule:nonzero;stroke:none"
         id="path11390" />
    </g>
    <g
       id="g11392"
       transform="matrix(11.099999,0,0,-11.099999,1069.9494,599.77522)">
      <path
         inkscape:connector-curvature="0"
         d="m 0,0 0,15.771 -2.532,0 0,-15.771 c 0,-2.772 2.255,-5.027 5.027,-5.027 l 0,2.532 C 1.119,-2.495 0,-1.376 0,0"
         style="fill:#004f9d;fill-opacity:1;fill-rule:nonzero;stroke:none"
         id="path11394" />
    </g>
    <g
       id="g11396"
       transform="matrix(11.099999,0,0,-11.099999,641.66714,437.86948)">
      <path
         inkscape:connector-curvature="0"
         d="M 0,0 -6.032,-14.557 -12.034,0 l -3.56,0 0,-19.342 2.517,0 0,15.92 6.553,-15.92 0.986,0 6.582,15.92 0,-15.92 2.472,0 L 3.516,0 0,0 z"
         style="fill:#004f9d;fill-opacity:1;fill-rule:nonzero;stroke:none"
         id="path11398" />
    </g>
    <g
       id="g11400"
       transform="matrix(11.099999,0,0,-11.099999,248.28762,539.75086)">
      <path
         inkscape:connector-curvature="0"
         d="m 0,0 0.746,-0.433 c 0.292,-0.225 0.481,-0.576 0.481,-0.972 0,-0.396 -0.189,-0.748 -0.481,-0.972 L 0,-2.808 2.395,-4.193 c 0.785,0.674 1.282,1.673 1.282,2.788 0,1.118 -0.499,2.119 -1.287,2.793 C 2.26,1.499 2.123,1.601 1.978,1.693 L 0,2.84 -6.604,6.669 c -0.545,0.319 -1.179,0.503 -1.856,0.503 -2.031,0 -3.676,-1.646 -3.676,-3.676 l 0,-9.782 c 0,-2.031 1.645,-3.677 3.676,-3.677 0.674,0 1.304,0.183 1.847,0.499 L 0,-5.645 -1.978,-4.503 c -0.147,0.093 -0.287,0.197 -0.417,0.31 l -5.447,-3.149 c -0.181,-0.108 -0.392,-0.17 -0.618,-0.17 -0.677,0 -1.225,0.549 -1.225,1.226 l 0,9.782 c 0,0.677 0.548,1.226 1.225,1.226 0.229,0 0.443,-0.065 0.627,-0.175 l 5.442,-3.159 10e-4,0 L 0,0 z"
         style="fill:#004f9d;fill-opacity:1;fill-rule:nonzero;stroke:none"
         id="path11402" />
    </g>
    <g
       id="g11404"
       transform="matrix(11.099999,0,0,-11.099999,1093.7857,437.74072)">
      <path
         inkscape:connector-curvature="0"
         d="M 0,0 0.266,0 C 0.49,0 0.695,0.011 0.695,0.269 0.695,0.486 0.508,0.52 0.337,0.52 L 0,0.52 0,0 z m -0.254,0.725 0.631,0 c 0.389,0 0.572,-0.154 0.572,-0.467 0,-0.296 -0.186,-0.418 -0.429,-0.445 l 0.466,-0.721 -0.272,0 -0.445,0.703 -0.269,0 0,-0.703 -0.254,0 0,1.633 z m 0.545,-2.011 c 0.647,0 1.148,0.516 1.148,1.2 0,0.669 -0.501,1.185 -1.148,1.185 -0.654,0 -1.154,-0.516 -1.154,-1.185 0,-0.684 0.5,-1.2 1.154,-1.2 m 0,2.59 c 0.763,0 1.402,-0.601 1.402,-1.39 0,-0.803 -0.639,-1.405 -1.402,-1.405 -0.765,0 -1.408,0.602 -1.408,1.405 0,0.789 0.643,1.39 1.408,1.39"
         style="fill:#004f9d;fill-opacity:1;fill-rule:nonzero;stroke:none"
         id="path11406" />
    </g>
    <path
       inkscape:connector-curvature="0"
       d="m 740.81784,652.68776 -27.6834,0 0,-167.68768 27.6834,0 0,167.68768 z"
       style="fill:#004f9d;fill-opacity:1;fill-rule:nonzero;stroke:none"
       id="path11408" />
    <g
       id="g11410"
       transform="matrix(11.099999,0,0,-11.099999,934.57054,508.32783)">
      <path
         inkscape:connector-curvature="0"
         d="m 0,0 c 2.198,0 4.249,-1.641 4.864,-4.102 l -9.786,0 C -4.277,-1.523 -2.08,0 0,0 m 0.174,-11.309 c -2.491,0 -4.894,1.846 -5.216,4.981 l 12.686,0 c 0.03,5.362 -3.72,8.584 -7.618,8.584 -4.189,0 -7.588,-3.574 -7.588,-7.94 0,-4.424 3.399,-7.882 7.736,-7.882 3.486,0 6.064,1.817 7.119,5.04 l -2.637,0 c -0.821,-1.758 -2.344,-2.783 -4.482,-2.783"
         style="fill:#004f9d;fill-opacity:1;fill-rule:nonzero;stroke:none"
         id="path11412" />
    </g>
  </g>
</svg>
