<?xml version="1.0" encoding="utf-8"?>
<!-- Generator: Adobe Illustrator 22.0.1, SVG Export Plug-In . SVG Version: 6.00 Build 0)  -->
<svg version="1.1" id="Layer_2" xmlns="http://www.w3.org/2000/svg" xmlns:xlink="http://www.w3.org/1999/xlink" x="0px" y="0px"
	 viewBox="0 0 166.7 45.1" style="enable-background:new 0 0 166.7 45.1;" xml:space="preserve">
<style type="text/css">
	.st0{fill-rule:evenodd;clip-rule:evenodd;fill:#426AB3;}
</style>
<g>
	<path class="st0" d="M0.3,1.7h13.5c3,0,6.6,2.8,8.3,4.4l23.5,26.2V1.7h8v41.7H39.4c-2.4,0-4.9-0.6-7.7-3.4L8.2,13.8v29.6h-8V1.7
		L0.3,1.7z"/>
	<path class="st0" d="M166.8,43.7c-9.6,1.3-19.3,1.4-29,0.6c-5.6-0.5-11.3-1.7-16.3-4.4c-6.4-3.3-8.5-10.8-8.5-17.7
		c0.2-6.3,2-12.8,7.5-16.6c3.8-2.4,7.7-3.1,11.8-3.9c11.4-2,22.9-1.6,34-0.3v6c-13.2-2.5-27-1.9-31.7,4.1c-3,3.8-3.3,7.5-3.3,10.7
		c0,5.6,1.9,14.1,13.3,15.8c7.5,1.1,14.9,0.3,22.1-1.1V43.7L166.8,43.7z"/>
	<path class="st0" d="M85,37.1c1.1,0.2,19.1,0.2,25.4,0v6.3c-12.5,0.5-24.4,0.8-37.1,0.2c-10.7-0.5-12.5-5.8-12.7-11V1.7h49.2v6H78
		v10.7h29v5.8H78c0,3.1,0,6.6,0.2,7.2C78.3,35.4,80.2,37,85,37.1L85,37.1z"/>
</g>
</svg>
