<?xml version="1.0" encoding="utf-8"?>
<!-- Generator: Adobe Illustrator 22.0.1, SVG Export Plug-In . SVG Version: 6.00 Build 0)  -->
<svg version="1.1" id="Layer_1" xmlns="http://www.w3.org/2000/svg" xmlns:xlink="http://www.w3.org/1999/xlink" x="0px" y="0px"
	 viewBox="0 0 2112.1 455.9" style="enable-background:new 0 0 2112.1 455.9;" xml:space="preserve">
<style type="text/css">
	.st0{fill:#004F9D;}
	.st1{display:none;}
	.st2{fill:none;}
</style>
<path class="st0" d="M267.8,221.9c0,0-57.4,71.4-133.5,41.6c-64.8-25.3-80-111.7-39-161.1c41-49.4,107.9-61,160.5-51.9
	c59.1,10.3,106.2,44.6,124.4,66.5c18.2,21.7,41.2,44.6,31.9,3.5C402.6,79.2,321.1-0.8,213.2,0C85.3,0.8,9.7,88.2,1.2,164.6
	c-8.5,74.7,29.6,157.7,116,186.7c86.4,29.1,160.5-27.1,171-80.7C296,230.9,267.8,221.9,267.8,221.9"/>
<path class="st0" d="M162.3,224.9c0,0,46.7-62.3,123-33.2c65,24.8,80.9,111,40.3,160.8c-40.6,49.8-107.3,61.7-159.9,53.1
	c-59.3-9.7-106.2-44-125-65.4c-18.8-21.3-41.4-43.4-31.6-2.4c9.7,41.2,91.6,119.7,199.6,118.2c127.8-1.9,202.7-90,210.7-166.4
	c7.8-74.8-30.9-157.3-117.5-185.8c-86.7-28.3-150.3,19-160.4,72.5C133.9,216.1,162.3,224.9,162.3,224.9"/>
<path class="st0" d="M513.4,333.7c16.7,25.5,45.7,37.2,73.5,37.2c30.9,0,69.1-19.6,69.1-57.8c0-79.7-171-30.3-171-165.6
	c0-40.6,34.4-96.9,117.7-96.9c37.7,0,73.9,7.8,99.9,39.7L664.3,125c-11.7-18.1-34.7-30.3-61.6-30.3c-52,0-67.7,31.3-67.7,52.8
	c0,87.7,170.9,35.4,170.9,160.3c0,67.1-53.9,107.2-120.5,107.2c-44.5,0-87.1-15.2-110.8-48L513.4,333.7L513.4,333.7z M734.9,35.8
	H779v173.9h0.9c11.4-24.5,40.7-41.6,76.5-41.6c45.1,0,84.2,26.9,84.2,88.7v149.4h-44.1V269.1c0-43.7-25-59.9-52.9-59.9
	c-36.8,0-64.7,23.6-64.7,77.5v119.6h-44.1L734.9,35.8L734.9,35.8z M1090.2,168.2c69.1,0,123.5,54.2,123.5,121.9
	c0,67.7-54.4,122.1-123.5,122.1c-69.1,0-123.5-54.4-123.5-122.1C966.6,222.4,1021,168.2,1090.2,168.2L1090.2,168.2z M1090.2,370.9
	c47,0,76.4-33.8,76.4-80.9c0-47-29.4-80.9-76.4-80.9c-47,0-76.5,33.9-76.5,80.9C1013.6,337.1,1043.1,370.9,1090.2,370.9 M1239.6,174
	h44.1v35.8h0.9c11.3-24.5,40.7-41.6,69.6-41.6c6.9,0,13.7,0.9,19.6,2.9l-1.9,47.6c-7.3-1.9-14.7-3.5-21.7-3.5
	c-43,0-66.5,23.7-66.5,74.5v116.7h-44.1V174z M1991.4,35.8h44.1v370.4h-44.1L1991.4,35.8z M1416.1,306.3c0,40.7,37.7,67.6,78.4,67.6
	c26.9,0,46.5-13.7,63.7-34.8l33.4,25.6c-24.5,31.8-58.3,47.5-102.9,47.5c-73.5,0-119.5-52.9-119.5-122.1
	c0-69.6,50.4-121.9,120.1-121.9c81.8,0,113.1,62.7,113.1,122.4v15.7L1416.1,306.3L1416.1,306.3z M1555.3,270.9
	c-1-38.6-22.5-67.6-67.1-67.6c-43.6,0-72.1,36.8-72.1,67.6H1555.3z"/>
<path class="st0" d="M1641,103.5h-111.8V59.3h270.4v44.1H1688v302.8h-47V103.5z"/>
<path class="st0" d="M1778.3,306.3c0,40.7,37.6,67.6,78.3,67.6c26.9,0,46.6-13.7,63.7-34.8l33.4,25.6
	c-24.5,31.8-58.3,47.5-102.9,47.5c-73.5,0-119.6-52.9-119.6-122.1c0-69.6,50.5-121.9,120.1-121.9c81.8,0,113.2,62.7,113.2,122.4
	v15.7L1778.3,306.3L1778.3,306.3z M1917.3,270.9c-0.9-38.6-22.5-67.6-67.1-67.6c-43.6,0-72,36.8-72,67.6H1917.3L1917.3,270.9z"/>
<path class="st0" d="M2089.4,32.9c12.7,0,22.7,10.3,22.7,22.9c0,12.9-10.1,23-22.8,23c-12.7,0-23-10.2-23-22.9c0-0.1,0-0.1,0-0.2
	C2066.3,43.2,2076.6,32.9,2089.4,32.9L2089.4,32.9L2089.4,32.9z M2089.2,37.5c-9.6,0-17.3,8.3-17.3,18.5c0,10.3,7.8,18.3,17.4,18.3
	c9.7,0.1,17.5-8,17.5-18.3c0-10.2-7.8-18.5-17.5-18.5L2089.2,37.5L2089.2,37.5z M2085.3,69.2h-5.4V43.7c2-0.3,4.3-0.7,8.1-0.7
	c4.4,0,7,0.7,8.8,2c1.4,1.1,2.2,2.9,2.2,5.5c0,3-2.1,5.2-4.9,5.9v0.2c2.2,0.4,3.6,2.4,4.1,6.2c0.5,4,1,5.5,1.4,6.3h-5.6
	c-0.6-0.9-1-3.1-1.5-6.6c-0.4-2.7-2-3.9-4.8-3.9h-2.4L2085.3,69.2L2085.3,69.2L2085.3,69.2z"/>
<path class="st1" d="M2085.3,54.5h2.5c3.2,0,5.6-1,5.6-3.7c0-2.1-1.5-3.8-5.2-3.8c-1.3,0-2.2,0-2.9,0.1V54.5z"/>
<path class="st2" d="M-232.3-234.8h2500V987h-2500V-234.8z"/>
</svg>
